<?xml version="1.0" encoding="UTF-8"?>
<svg width="129px" height="59px" viewBox="0 0 129 59" version="1.1" xmlns="http://www.w3.org/2000/svg" xmlns:xlink="http://www.w3.org/1999/xlink">
    <title>Byotik Logo - Tagline Copy</title>
    <g id="Byotik-Logo---Tagline-Copy" stroke="none" stroke-width="1" fill="none" fill-rule="evenodd">
        <g id="Group-2" fill="#FFFFFF">
            <g id="Group" fill-rule="nonzero">
                <g id="Combined-Shape-2">
                    <path d="M28.0236655,9.85934402 L35.7271749,29.0105765 L43.9615626,9.85934402 L47.9994695,9.85934402 L33.3328301,43.7827659 L29.3305847,43.7827659 L33.7891273,34.0013917 L23.9917814,9.85934402 L28.0236655,9.85934402 Z M62.6005792,9.22835663 C69.9030183,9.22835663 75.9485542,15.3132457 75.9485542,22.4717491 C75.9485542,29.7319862 69.8454946,35.7151415 62.6005792,35.7151415 C55.4180165,35.7151415 49.3434571,29.7026996 49.3434571,22.6520312 C49.3434571,15.2688268 55.3448614,9.22835663 62.6005792,9.22835663 Z M86.8509016,1.16073224 L86.8506343,9.85836978 L92.8017662,9.85934402 L92.8017662,13.3150894 L86.8506343,13.3145924 L86.8509016,35.1292247 L83.0498812,35.1292247 L83.0490794,13.3145924 L77.8258397,13.3150894 L77.8258397,9.85934402 L83.0490794,9.85836978 L83.0498812,1.16073224 L86.8509016,1.16073224 Z M10.3052125,1.20654691 L10.645325,1.2386514 C16.5400165,1.79507339 20.0647338,5.34748109 20.0647338,10.3477772 C20.0647338,12.8764081 19.2389014,14.6796177 17.1506633,16.5619298 L16.8710894,16.8079635 L16.6585259,16.9852883 L16.8377682,17.0710606 C19.8638637,18.569888 21.7179689,21.3339929 21.9482994,24.5761504 L21.9667437,24.9253178 L21.9726446,25.2661218 C21.9726446,30.9091934 18.4236223,34.8345909 11.1496203,35.1133442 L10.7416757,35.1250666 L10.3054482,35.1292247 L0.00105808595,35.1292247 L0,9.86045391 L3.98290456,9.86045391 L3.98294918,15.5382107 L8.98808121,15.5382305 C12.7475886,15.5382305 14.8389739,14.3016769 15.6768989,12.2902133 L15.7591265,12.0793855 L15.8325135,11.8631428 L15.9108995,11.5893956 L15.9724884,11.3201677 L16.0366323,10.9291329 L16.0627688,10.6799234 L16.0808877,10.3255634 L16.0820076,10.2125656 C16.0820076,7.53660306 14.4949925,5.52606686 10.9180643,4.95777786 L10.5768851,4.9087498 L10.3064242,4.87386971 L10.3052125,1.20654691 Z M112.382611,1.16073224 L112.381927,24.4265209 L123.499761,9.98049929 L123.746623,9.85934402 L128.472461,9.85934402 L118.422175,22.5998012 L129,35.1292247 L124.246314,35.1292247 L124.007717,35.0183471 L116.076641,25.5740755 L112.381927,30.2407157 L112.382611,35.1292247 L108.581591,35.1292247 L108.581591,1.16073224 L112.382611,1.16073224 Z M62.6005792,12.684102 C57.3949122,12.684102 53.1444775,17.1588725 53.1444775,22.6069607 C53.1444775,27.8744482 57.4405247,32.2593961 62.6460056,32.2593961 C67.9938389,32.2593961 72.1475338,27.8715047 72.1475338,22.3365375 C72.1475338,17.0751071 67.8588711,12.684102 62.6005792,12.684102 Z M3.98294918,19.173161 L3.98294918,31.4930417 L10.0328895,31.4931971 C14.9039068,31.4931971 17.9899184,29.4102405 17.9899184,25.2661218 C17.9899184,21.7362893 14.9519228,19.2901275 10.3632677,19.1782616 L10.0328895,19.174258 L3.98294918,19.173161 Z M101.827866,9.85934402 L101.827007,27.7332173 L98.0267066,27.7332173 L98.0268328,9.85934402 L101.827866,9.85934402 Z M100.064143,0 C101.607923,0 102.859404,1.2416755 102.859404,2.77335984 C102.859404,4.30504419 101.607923,5.54671968 100.064143,5.54671968 C98.5203635,5.54671968 97.2688825,4.30504419 97.2688825,2.77335984 C97.2688825,1.2416755 98.5203635,0 100.064143,0 Z" id="Combined-Shape"></path>
                </g>
            </g>
            <text id="Labs" font-family="ITCAvantGardePro-Bk, ITC Avant Garde Gothic Pro" font-size="12.5463932" font-weight="300">
                <tspan x="49.6935281" y="57.0357853">Labs</tspan>
            </text>
        </g>
    </g>
</svg>