<?xml version="1.0" encoding="UTF-8"?>
<svg width="129px" height="59px" viewBox="0 0 129 59" version="1.1" xmlns="http://www.w3.org/2000/svg" xmlns:xlink="http://www.w3.org/1999/xlink">
    <title>Byotik Logo - Tagline Copy</title>
    <g id="Byotik-Logo---Tagline-Copy" stroke="none" stroke-width="1" fill="none" fill-rule="evenodd">
        <g id="Group-2" fill="#FFFFFF" fill-rule="nonzero">
            <g id="Combined-Shape-2">
                <path d="M28.0236655,9.85934402 L35.7271749,29.0105765 L43.9615626,9.85934402 L47.9994695,9.85934402 L33.3328301,43.7827659 L29.3305847,43.7827659 L33.7891273,34.0013917 L23.9917814,9.85934402 L28.0236655,9.85934402 Z M62.6005792,9.22835663 C69.9030183,9.22835663 75.9485542,15.3132457 75.9485542,22.4717491 C75.9485542,29.7319862 69.8454946,35.7151415 62.6005792,35.7151415 C55.4180165,35.7151415 49.3434571,29.7026996 49.3434571,22.6520312 C49.3434571,15.2688268 55.3448614,9.22835663 62.6005792,9.22835663 Z M86.8509016,1.16073224 L86.8506343,9.85836978 L92.8017662,9.85934402 L92.8017662,13.3150894 L86.8506343,13.3145924 L86.8509016,35.1292247 L83.0498812,35.1292247 L83.0490794,13.3145924 L77.8258397,13.3150894 L77.8258397,9.85934402 L83.0490794,9.85836978 L83.0498812,1.16073224 L86.8509016,1.16073224 Z M10.3052125,1.20654691 L10.645325,1.2386514 C16.5400165,1.79507339 20.0647338,5.34748109 20.0647338,10.3477772 C20.0647338,12.8764081 19.2389014,14.6796177 17.1506633,16.5619298 L16.8710894,16.8079635 L16.6585259,16.9852883 L16.8377682,17.0710606 C19.8638637,18.569888 21.7179689,21.3339929 21.9482994,24.5761504 L21.9667437,24.9253178 L21.9726446,25.2661218 C21.9726446,30.9091934 18.4236223,34.8345909 11.1496203,35.1133442 L10.7416757,35.1250666 L10.3054482,35.1292247 L0.00105808595,35.1292247 L0,9.86045391 L3.98290456,9.86045391 L3.98294918,15.5382107 L8.98808121,15.5382305 C12.7475886,15.5382305 14.8389739,14.3016769 15.6768989,12.2902133 L15.7591265,12.0793855 L15.8325135,11.8631428 L15.9108995,11.5893956 L15.9724884,11.3201677 L16.0366323,10.9291329 L16.0627688,10.6799234 L16.0808877,10.3255634 L16.0820076,10.2125656 C16.0820076,7.53660306 14.4949925,5.52606686 10.9180643,4.95777786 L10.5768851,4.9087498 L10.3064242,4.87386971 L10.3052125,1.20654691 Z M112.382611,1.16073224 L112.381927,24.4265209 L123.499761,9.98049929 L123.746623,9.85934402 L128.472461,9.85934402 L118.422175,22.5998012 L129,35.1292247 L124.246314,35.1292247 L124.007717,35.0183471 L116.076641,25.5740755 L112.381927,30.2407157 L112.382611,35.1292247 L108.581591,35.1292247 L108.581591,1.16073224 L112.382611,1.16073224 Z M62.6005792,12.684102 C57.3949122,12.684102 53.1444775,17.1588725 53.1444775,22.6069607 C53.1444775,27.8744482 57.4405247,32.2593961 62.6460056,32.2593961 C67.9938389,32.2593961 72.1475338,27.8715047 72.1475338,22.3365375 C72.1475338,17.0751071 67.8588711,12.684102 62.6005792,12.684102 Z M3.98294918,19.173161 L3.98294918,31.4930417 L10.0328895,31.4931971 C14.9039068,31.4931971 17.9899184,29.4102405 17.9899184,25.2661218 C17.9899184,21.7362893 14.9519228,19.2901275 10.3632677,19.1782616 L10.0328895,19.174258 L3.98294918,19.173161 Z M101.827866,9.85934402 L101.827007,27.7332173 L98.0267066,27.7332173 L98.0268328,9.85934402 L101.827866,9.85934402 Z M100.064143,0 C101.607923,0 102.859404,1.2416755 102.859404,2.77335984 C102.859404,4.30504419 101.607923,5.54671968 100.064143,5.54671968 C98.5203635,5.54671968 97.2688825,4.30504419 97.2688825,2.77335984 C97.2688825,1.2416755 98.5203635,0 100.064143,0 Z" id="Combined-Shape"></path>
            </g>
            <path d="M55.4899618,57.0357853 L55.4899618,56.1951769 L51.6507654,56.1951769 L51.6507654,47.7514543 L50.7223324,47.7514543 L50.7223324,57.0357853 L55.4899618,57.0357853 Z M59.7055499,57.1988884 C60.8221788,57.1988884 61.8133439,56.6844863 62.3779316,55.8313315 L62.4030244,55.8313315 L62.4030244,57.0357853 L63.2812719,57.0357853 L63.2812719,50.1729082 L62.4030244,50.1729082 L62.4030244,51.377362 L62.3779316,51.377362 C61.8258903,50.5116608 60.8472716,49.9972587 59.7055499,49.9972587 C57.698127,49.9972587 56.0169103,51.5279187 56.0169103,53.5855272 C56.0169103,55.6431356 57.6479414,57.1988884 59.7055499,57.1988884 Z M59.7055499,56.4084656 C58.0870651,56.4084656 56.8951578,55.2040119 56.8951578,53.6231663 C56.8951578,51.9921352 58.1121579,50.7876815 59.6930035,50.7876815 C61.2487562,50.7876815 62.45321,52.07996 62.45321,53.61062 C62.45321,55.1538263 61.2362098,56.4084656 59.7055499,56.4084656 Z M68.4880251,57.1988884 C70.5707263,57.1988884 72.1766647,55.6305893 72.1766647,53.5855272 C72.1766647,51.5279187 70.495448,49.9972587 68.4880251,49.9972587 C67.3839425,49.9972587 66.4053238,50.5367536 65.8156433,51.377362 L65.7905505,51.377362 L65.7905505,47.7514543 L64.912303,47.7514543 L64.912303,57.0357853 L65.7905505,57.0357853 L65.7905505,55.8313315 L65.8156433,55.8313315 C66.4304166,56.7221255 67.4215817,57.1988884 68.4880251,57.1988884 Z M68.4880251,56.4084656 C66.9448187,56.4084656 65.740365,55.1412799 65.740365,53.61062 C65.740365,52.0548672 66.9699115,50.7876815 68.4754787,50.7876815 C70.1065098,50.7876815 71.2984171,52.0046816 71.2984171,53.6231663 C71.2984171,55.1914655 70.1190562,56.4084656 68.4880251,56.4084656 Z M75.0246959,57.1988884 C76.3420672,57.1988884 77.1826755,56.3959192 77.1826755,55.1412799 C77.1826755,54.1626613 76.8564693,53.4977024 75.187799,52.9456611 C74.3471907,52.6696405 73.9958917,52.3183415 73.9958917,51.8164857 C73.9958917,51.2268053 74.4601082,50.7876815 75.0372423,50.7876815 C75.60183,50.7876815 76.015861,51.2017125 76.0660465,51.8666713 L76.9442941,51.8666713 C76.9442941,50.7751351 76.1036857,49.9972587 75.0748815,49.9972587 C73.9457061,49.9972587 73.1176441,50.8002279 73.1176441,51.9043105 C73.1176441,53.0836714 73.8829741,53.4224241 75.0874279,53.8615478 C75.8778506,54.1501149 76.304428,54.5139603 76.304428,55.1789191 C76.304428,55.9693419 75.8151187,56.4084656 75.0246959,56.4084656 C74.2844587,56.4084656 73.8076958,55.9191563 73.7951494,55.0032696 L72.9169019,55.0032696 L72.9169019,55.0534552 C72.9169019,56.3582801 73.8453349,57.1988884 75.0246959,57.1988884 Z" id="Labs"></path>
        </g>
    </g>
</svg>